
<svg xmlns="http://www.w3.org/2000/svg" version="1.1" xmlns:xlink="http://www.w3.org/1999/xlink" preserveAspectRatio="none" x="0px" y="0px" width="400px" height="400px" viewBox="0 0 400 400">
<path id="Layer0_0_1_STROKES" stroke="#0095D9" stroke-width="56" stroke-linejoin="round" stroke-linecap="round" fill="none" d="
M 312 115.6
Q 340.3 152.1 340.3 200.4 340.3 258.5 299.15 299.55 258.1 340.65 199.95 340.65 141.85 340.65 100.75 299.55 59.7 258.5 59.7 200.4 59.7 153.65 86.15 117.95"/>

<path id="Layer0_1_1_STROKES" stroke="#0095DA" stroke-width="40" stroke-linejoin="round" stroke-linecap="round" fill="none" d="
M 160.05 220.05
L 160.05 215.725 160.05 60
Q 160.15625 43.643359375 171.75 32 183.45 20.3 200.05 20.3 216.6 20.3 228.3 32 239.943359375 43.643359375 240.05 60
L 240.05 214
Q 240.05 214.15 240.05 214.3 240.05 230.85 228.3 242.55 216.6 254.3 200.05 254.3 183.45 254.3 171.75 242.55 160.5611328125 231.3611328125 160.05 215.725"/>

</svg>
